Coordinates
version=1
nRows=17
nColumns=40
inDegrees=yes

Units are S.I. units (second, meters, Newtons, ...)
If the header above contains a line with 'inDegrees', this indicates whether rotational values are in degrees (yes) or radians (no).

endheader
time	pelvis_tilt	pelvis_list	pelvis_rotation	pelvis_tx	pelvis_ty	pelvis_tz	hip_flexion_r	hip_adduction_r	hip_rotation_r	knee_angle_r	knee_angle_r_beta	ankle_angle_r	subtalar_angle_r	mtp_angle_r	hip_flexion_l	hip_adduction_l	hip_rotation_l	knee_angle_l	knee_angle_l_beta	ankle_angle_l	subtalar_angle_l	mtp_angle_l	lumbar_extension	lumbar_bending	lumbar_rotation	arm_flex_r	arm_add_r	arm_rot_r	elbow_flex_r	pro_sup_r	wrist_flex_r	wrist_dev_r	arm_flex_l	arm_add_l	arm_rot_l	elbow_flex_l	pro_sup_l	wrist_flex_l	wrist_dev_l
      2.50000000	      3.44743704	     -1.14437458	     -4.13244594	     -0.32210338	      0.94529519	     -1.02765770	     26.57810407	     -2.46727769	      3.02116421	      7.85816928	      0.13715093	     -0.89039850	      0.00000000	      0.00000000	      3.58182528	      3.16372065	     -8.87786461	     12.68061641	      0.22131851	     -3.75286661	      0.00000000	      0.00000000	    -14.36066266	     -0.12418932	      3.23629379	     68.20299052	    -12.69560587	     15.49631269	     26.07201733	     85.76920294	      0.00000000	      0.00000000	     68.45154939	    -21.07697051	     22.83186836	     34.64726942	     85.44961705	      0.00000000	      0.00000000
      2.50500000	      3.42604686	     -1.11668086	     -4.13076141	     -0.32292414	      0.94519215	     -1.02756754	     26.89125202	     -2.43217543	      2.73299550	      7.87116601	      0.13737776	     -0.98548474	      0.00000000	      0.00000000	      3.80103181	      3.15078776	     -8.89742684	     12.98221489	      0.22658239	     -3.62984171	      0.00000000	      0.00000000	    -14.42896823	     -0.16676748	      3.20067645	     68.59082742	    -12.68480372	     15.87185037	     25.93655862	     85.71950641	      0.00000000	      0.00000000	     68.80216833	    -21.12638040	     22.97502245	     34.61232662	     85.52546063	      0.00000000	      0.00000000
      2.51000000	      3.42736397	     -1.12941861	     -4.21208547	     -0.32342144	      0.94515873	     -1.02745378	     27.09916442	     -2.32993296	      2.61970281	      7.78700677	      0.13590891	     -1.12665698	      0.00000000	      0.00000000	      3.90859793	      3.11310102	     -9.00314542	     13.13922968	      0.22932282	     -3.59519764	      0.00000000	      0.00000000	    -14.48684253	     -0.17157970	      3.25730290	     68.88541938	    -12.65981486	     15.91432128	     25.90536710	     85.70276932	      0.00000000	      0.00000000	     69.06386203	    -21.13072635	     22.94333891	     34.58761170	     85.55055740	      0.00000000	      0.00000000
      2.51500000	      3.41745914	     -1.16359825	     -4.23623105	     -0.32376143	      0.94506683	     -1.02740820	     27.35132690	     -2.23141672	      2.37240669	      7.83238107	      0.13670084	     -1.14813780	      0.00000000	      0.00000000	      4.02234979	      3.05803958	     -8.99266244	     13.30751421	      0.23225994	     -3.52010994	      0.00000000	      0.00000000	    -14.52038144	     -0.14070150	      3.25666366	     69.17422480	    -12.68328158	     16.24566785	     25.84549596	     85.75612163	      0.00000000	      0.00000000	     69.33419330	    -21.17926299	     23.16257538	     34.57824796	     85.53783987	      0.00000000	      0.00000000
      2.52000000	      3.44605489	     -1.17170255	     -4.27294904	     -0.32414746	      0.94506758	     -1.02732205	     27.51734079	     -2.15767403	      2.20098271	      7.75763651	      0.13539630	     -1.27304600	      0.00000000	      0.00000000	      4.08219073	      3.03985753	     -8.98557495	     13.40805205	      0.23401465	     -3.56462514	      0.00000000	      0.00000000	    -14.59788257	     -0.15249358	      3.27322997	     69.42394618	    -12.66382268	     16.26432010	     25.83080944	     85.77343656	      0.00000000	      0.00000000	     69.64727697	    -21.20270503	     23.39907016	     34.45841997	     85.51507900	      0.00000000	      0.00000000
      2.52500000	      3.46512819	     -1.15409913	     -4.35074033	     -0.32450083	      0.94504829	     -1.02722144	     27.70820458	     -2.09229657	      2.11684238	      7.71615431	      0.13467230	     -1.34556970	      0.00000000	      0.00000000	      4.15905662	      3.03216369	     -9.12949885	     13.58206752	      0.23705180	     -3.46090219	      0.00000000	      0.00000000	    -14.66699723	     -0.20056920	      3.31320040	     69.67430660	    -12.66063809	     16.40683761	     25.83134323	     85.75304692	      0.00000000	      0.00000000	     69.93325859	    -21.21432544	     23.55201086	     34.38489514	     85.45804334	      0.00000000	      0.00000000
      2.53000000	      3.45767985	     -1.14045251	     -4.37356440	     -0.32491461	      0.94498276	     -1.02714726	     27.95968093	     -2.03955351	      1.96682162	      7.78729567	      0.13591395	     -1.30490387	      0.00000000	      0.00000000	      4.27225972	      3.03243994	     -9.07877947	     13.70385894	      0.23917746	     -3.50435090	      0.00000000	      0.00000000	    -14.70991708	     -0.22710326	      3.29166262	     69.95498964	    -12.58142612	     16.36273078	     25.70511854	     85.85499300	      0.00000000	      0.00000000	     70.21784668	    -21.26427471	     23.70066112	     34.33935197	     85.28126611	      0.00000000	      0.00000000
      2.53500000	      3.45430462	     -1.14009061	     -4.41058788	     -0.32530209	      0.94490967	     -1.02705442	     28.16085008	     -1.97055991	      1.91043230	      7.75193014	      0.13529670	     -1.44316024	      0.00000000	      0.00000000	      4.41759633	      2.98578559	     -9.25532501	     13.97210707	      0.24385927	     -3.35787106	      0.00000000	      0.00000000	    -14.75762463	     -0.24351584	      3.31353484	     70.17874066	    -12.58881213	     16.47356047	     25.71611908	     85.86847454	      0.00000000	      0.00000000	     70.50193170	    -21.27195034	     23.77019041	     34.24013991	     85.30014950	      0.00000000	      0.00000000
      2.54000000	      3.43104533	     -1.14843980	     -4.39531787	     -0.32575779	      0.94480991	     -1.02700765	     28.40317511	     -1.91476890	      1.80491742	      7.78240054	      0.13582851	     -1.40054574	      0.00000000	      0.00000000	      4.58100045	      2.96414318	     -9.09217685	     14.18011883	      0.24748976	     -3.32274085	      0.00000000	      0.00000000	    -14.78505802	     -0.24493299	      3.27293890	     70.45473011	    -12.54296318	     16.52619229	     25.62656041	     85.92153597	      0.00000000	      0.00000000	     70.77861067	    -21.34063884	     24.16019818	     34.20292926	     85.17075603	      0.00000000	      0.00000000
      2.54500000	      3.47748040	     -1.18692580	     -4.41035257	     -0.32620063	      0.94477448	     -1.02696091	     28.57450320	     -1.81351669	      1.71484191	      7.84473496	      0.13691645	     -1.46150875	      0.00000000	      0.00000000	      4.66007723	      2.89806119	     -9.13096684	     14.35418949	      0.25052787	     -3.31868540	      0.00000000	      0.00000000	    -14.90072794	     -0.21518237	      3.26752900	     70.73536139	    -12.58935476	     16.97870315	     25.58428098	     85.79189478	      0.00000000	      0.00000000	     71.05124468	    -21.33650086	     24.14614960	     34.10477944	     85.37861407	      0.00000000	      0.00000000
      2.55000000	      3.44221451	     -1.26126177	     -4.38205977	     -0.32670143	      0.94462236	     -1.02693352	     28.83853488	     -1.70439481	      1.44433621	      7.93284642	      0.13845429	     -1.43550547	      0.00000000	      0.00000000	      4.91212525	      2.76121515	     -9.14482854	     14.77613976	      0.25789229	     -3.09769775	      0.00000000	      0.00000000	    -14.93824501	     -0.10077087	      3.17487006	     71.14683863	    -12.51297498	     17.61020322	     25.27271277	     85.83306092	      0.00000000	      0.00000000	     71.20336340	    -21.29923721	     23.63794857	     34.02157261	     85.21184152	      0.00000000	      0.00000000
      2.55500000	      3.46677228	     -1.21767511	     -4.41471409	     -0.32708699	      0.94459041	     -1.02681737	     29.00857979	     -1.66660653	      1.58247368	      7.95725458	      0.13888029	     -1.29352651	      0.00000000	      0.00000000	      4.93117726	      2.79316750	     -9.23033986	     14.77463929	      0.25786610	     -3.18966383	      0.00000000	      0.00000000	    -15.02125953	     -0.19896704	      3.23828821	     71.24544072	    -12.51518117	     17.07363364	     25.41803944	     85.70730149	      0.00000000	      0.00000000	     71.58153667	    -21.35782289	     24.26224495	     33.95335326	     85.44619910	      0.00000000	      0.00000000
      2.56000000	      3.46063377	     -1.24064603	     -4.40081730	     -0.32756338	      0.94444694	     -1.02677942	     29.24305287	     -1.59633161	      1.50177083	      8.06535019	      0.14076692	     -1.18365964	      0.00000000	      0.00000000	      5.08866918	      2.74612059	     -9.19503847	     14.98605511	      0.26155600	     -3.15734233	      0.00000000	      0.00000000	    -15.08327880	     -0.17355611	      3.18238325	     71.56260171	    -12.50425309	     17.47230230	     25.26870072	     85.79089546	      0.00000000	      0.00000000	     71.88272601	    -21.39329238	     24.40214434	     33.80859580	     85.34244820	      0.00000000	      0.00000000
      2.56500000	      3.45870151	     -1.24354798	     -4.39223408	     -0.32795169	      0.94435295	     -1.02672681	     29.43149643	     -1.53851254	      1.53436257	      8.11556660	      0.14164336	     -1.04831704	      0.00000000	      0.00000000	      5.20370216	      2.72306239	     -9.14841028	     15.14448706	      0.26432116	     -3.14281276	      0.00000000	      0.00000000	    -15.14089169	     -0.17583549	      3.13618984	     71.80595903	    -12.41647695	     17.35812343	     25.15261220	     85.84702293	      0.00000000	      0.00000000	     72.11995153	    -21.42810516	     24.46879214	     33.73978951	     85.15217757	      0.00000000	      0.00000000
      2.57000000	      3.45488896	     -1.28136053	     -4.38436915	     -0.32841313	      0.94423207	     -1.02670455	     29.62105396	     -1.44548208	      1.54842134	      8.13255051	      0.14193978	     -1.03736281	      0.00000000	      0.00000000	      5.37387638	      2.63892427	     -9.26631765	     15.46323901	      0.26988443	     -2.96603137	      0.00000000	      0.00000000	    -15.20958496	     -0.14285629	      3.14470729	     72.07510334	    -12.46238333	     17.64431132	     25.07792760	     86.00177335	      0.00000000	      0.00000000	     72.35598373	    -21.40877157	     24.48786626	     33.68613926	     84.94109012	      0.00000000	      0.00000000
      2.57500000	      3.41294517	     -1.26028379	     -4.38226254	     -0.32889134	      0.94404429	     -1.02666064	     29.85916313	     -1.40355599	      1.65804063	      8.16351398	      0.14248020	     -0.96582118	      0.00000000	      0.00000000	      5.55789433	      2.63341519	     -9.27743390	     15.66894748	      0.27347472	     -2.90905008	      0.00000000	      0.00000000	    -15.22984183	     -0.17646780	      3.12196925	     72.25984988	    -12.42365227	     17.52247288	     25.08585832	     85.72932617	      0.00000000	      0.00000000	     72.69834720	    -21.48844388	     24.91922527	     33.56333817	     85.33741748	      0.00000000	      0.00000000
      2.58000000	      3.40151581	     -1.25725542	     -4.36603243	     -0.32941380	      0.94392181	     -1.02663170	     30.06053697	     -1.35420226	      1.71791544	      8.19225565	      0.14298183	     -0.92836458	      0.00000000	      0.00000000	      5.71605334	      2.62231043	     -9.21643893	     15.84131428	      0.27648309	     -2.94097440	      0.00000000	      0.00000000	    -15.30228790	     -0.17729634	      3.08235137	     72.53386507	    -12.44504134	     17.86752268	     25.02911542	     85.66000584	      0.00000000	      0.00000000	     72.92399465	    -21.49224577	     24.79194393	     33.50567706	     85.40906471	      0.00000000	      0.00000000
